<svg xmlns="http://www.w3.org/2000/svg" viewBox="0 0 640 360" width="640" height="360">
  <defs>
    <linearGradient id="tile" x1="0" y1="0" x2="1" y2="1">
      <stop offset="0" stop-color="#0B0C0F"/>
      <stop offset="1" stop-color="#191B20"/>
    </linearGradient>
    <linearGradient id="lineGrad" gradientUnits="userSpaceOnUse" x1="84" y1="0" x2="428" y2="0">
      <stop offset="0"    stop-color="#FAFBFC" stop-opacity="0"/>
      <stop offset="0.18" stop-color="#FAFBFC" stop-opacity="0.55"/>
      <stop offset="0.5"  stop-color="#FFFFFF" stop-opacity="1"/>
      <stop offset="0.82" stop-color="#C4C9D2" stop-opacity="0.55"/>
      <stop offset="1"    stop-color="#C4C9D2" stop-opacity="0"/>
    </linearGradient>
    <!-- dark pupil colour, fading to transparent at top & bottom tips (spills into the bg) -->
    <linearGradient id="darkGrad" gradientUnits="userSpaceOnUse" x1="256" y1="148" x2="256" y2="364">
      <stop offset="0"    stop-color="#040406" stop-opacity="0"/>
      <stop offset="0.20" stop-color="#040406" stop-opacity="0.97"/>
      <stop offset="0.80" stop-color="#040406" stop-opacity="0.97"/>
      <stop offset="1"    stop-color="#040406" stop-opacity="0"/>
    </linearGradient>
    <radialGradient id="glow" cx="0.5" cy="0.5" r="0.5">
      <stop offset="0" stop-color="#C9CFD8" stop-opacity="0.10"/>
      <stop offset="1" stop-color="#C9CFD8" stop-opacity="0"/>
    </radialGradient>
    <radialGradient id="silver" cx="0.5" cy="0.5" r="0.5">
      <stop offset="0" stop-color="#FFFFFF" stop-opacity="0.95"/>
      <stop offset="0.6" stop-color="#E2E8F0" stop-opacity="0.5"/>
      <stop offset="1" stop-color="#E2E8F0" stop-opacity="0"/>
    </radialGradient>
    <!-- modest blur: cuts silver where the streaks are (tile shows through) -->
    <filter id="soft" x="-60%" y="-60%" width="220%" height="220%"><feGaussianBlur stdDeviation="2.4"/></filter>
    <!-- softer blur on the painted dark streaks so their ends melt outward -->
    <filter id="softCore" x="-80%" y="-80%" width="260%" height="260%"><feGaussianBlur stdDeviation="3.2"/></filter>
    <mask id="pupil" maskUnits="userSpaceOnUse" x="0" y="0" width="512" height="512">
      <rect x="0" y="0" width="512" height="512" fill="#FFFFFF"/>
      <g filter="url(#soft)">
      <path d="M256,148 C271,207.4 271,304.6 256,364 C241,304.6 241,207.4 256,148 Z" fill="#000000"/>
      <path d="M275,192 C278.2,227.2 278.2,284.8 275,320 C271.8,284.8 271.8,227.2 275,192 Z" fill="#000000"/>
      <path d="M237,192 C240.2,227.2 240.2,284.8 237,320 C233.8,284.8 233.8,227.2 237,192 Z" fill="#000000"/>
      <path d="M289,206 C291.6,233.5 291.6,278.5 289,306 C286.4,278.5 286.4,233.5 289,206 Z" fill="#000000"/>
      <path d="M223,206 C225.6,233.5 225.6,278.5 223,306 C220.4,278.5 220.4,233.5 223,206 Z" fill="#000000"/>
      <path d="M303,218 C305.1,238.9 305.1,273.1 303,294 C300.9,273.1 300.9,238.9 303,218 Z" fill="#000000"/>
      <path d="M209,218 C211.1,238.9 211.1,273.1 209,294 C206.9,273.1 206.9,238.9 209,218 Z" fill="#000000"/>
      <path d="M317,229 C318.7,243.8 318.7,268.1 317,283 C315.3,268.1 315.3,243.8 317,229 Z" fill="#000000"/>
      <path d="M195,229 C196.7,243.8 196.7,268.1 195,283 C193.3,268.1 193.3,243.8 195,229 Z" fill="#000000"/>
      <path d="M331,238 C332.4,247.9 332.4,264.1 331,274 C329.6,264.1 329.6,247.9 331,238 Z" fill="#000000"/>
      <path d="M181,238 C182.4,247.9 182.4,264.1 181,274 C179.6,264.1 179.6,247.9 181,238 Z" fill="#000000"/>
      </g>
    </mask>
    <linearGradient id="word" x1="0" y1="0" x2="1" y2="0.4">
      <stop offset="0" stop-color="#FFFFFF"/>
      <stop offset="0.55" stop-color="#D7DBE1"/>
      <stop offset="1" stop-color="#9AA1AC"/>
    </linearGradient>
  </defs>
  <rect x="0" y="0" width="640" height="360" fill="url(#tile)"/>
  <ellipse cx="196" cy="180" rx="250" ry="195" fill="url(#glow)"/>
  <g transform="translate(44,22) scale(0.585)">
    <g fill="none" stroke-linecap="round" mask="url(#pupil)">
    <path d="M84.0,256.0 L93.5,263.3 L103.7,270.1 L114.4,276.4 L125.6,282.1 L137.3,287.3 L149.4,291.9 L161.9,296.0 L174.8,299.5 L187.9,302.5 L201.2,305.0 L214.7,306.9 L228.4,308.2 L242.2,309.1 L256.0,309.3 L269.8,309.1 L283.6,308.2 L297.3,306.9 L310.8,305.0 L324.1,302.5 L337.2,299.5 L350.1,296.0 L362.6,291.9 L374.7,287.3 L386.4,282.1 L397.6,276.4 L408.3,270.1 L418.5,263.3 L428.0,256.0" stroke="url(#lineGrad)" stroke-opacity="0.358" stroke-width="2.73"/>
    <path d="M84.0,256.0 L93.5,262.4 L103.7,268.4 L114.4,273.9 L125.6,278.9 L137.3,283.4 L149.4,287.4 L161.9,291.0 L174.8,294.1 L187.9,296.7 L201.2,298.9 L214.7,300.5 L228.4,301.7 L242.2,302.4 L256.0,302.7 L269.8,302.4 L283.6,301.7 L297.3,300.5 L310.8,298.9 L324.1,296.7 L337.2,294.1 L350.1,291.0 L362.6,287.4 L374.7,283.4 L386.4,278.9 L397.6,273.9 L408.3,268.4 L418.5,262.4 L428.0,256.0" stroke="url(#lineGrad)" stroke-opacity="0.416" stroke-width="2.87"/>
    <path d="M84.0,256.0 L93.5,261.5 L103.7,266.6 L114.4,271.3 L125.6,275.6 L137.3,279.5 L149.4,282.9 L161.9,286.0 L174.8,288.7 L187.9,290.9 L201.2,292.7 L214.7,294.2 L228.4,295.2 L242.2,295.8 L256.0,296.0 L269.8,295.8 L283.6,295.2 L297.3,294.2 L310.8,292.7 L324.1,290.9 L337.2,288.7 L350.1,286.0 L362.6,282.9 L374.7,279.5 L386.4,275.6 L397.6,271.3 L408.3,266.6 L418.5,261.5 L428.0,256.0" stroke="url(#lineGrad)" stroke-opacity="0.473" stroke-width="3.00"/>
    <path d="M84.0,256.0 L93.5,260.6 L103.7,264.8 L114.4,268.8 L125.6,272.3 L137.3,275.6 L149.4,278.4 L161.9,281.0 L174.8,283.2 L187.9,285.1 L201.2,286.6 L214.7,287.8 L228.4,288.7 L242.2,289.2 L256.0,289.3 L269.8,289.2 L283.6,288.7 L297.3,287.8 L310.8,286.6 L324.1,285.1 L337.2,283.2 L350.1,281.0 L362.6,278.4 L374.7,275.6 L386.4,272.3 L397.6,268.8 L408.3,264.8 L418.5,260.6 L428.0,256.0" stroke="url(#lineGrad)" stroke-opacity="0.531" stroke-width="3.13"/>
    <path d="M84.0,256.0 L93.5,259.7 L103.7,263.1 L114.4,266.2 L125.6,269.1 L137.3,271.6 L149.4,274.0 L161.9,276.0 L174.8,277.8 L187.9,279.3 L201.2,280.5 L214.7,281.4 L228.4,282.1 L242.2,282.5 L256.0,282.7 L269.8,282.5 L283.6,282.1 L297.3,281.4 L310.8,280.5 L324.1,279.3 L337.2,277.8 L350.1,276.0 L362.6,274.0 L374.7,271.6 L386.4,269.1 L397.6,266.2 L408.3,263.1 L418.5,259.7 L428.0,256.0" stroke="url(#lineGrad)" stroke-opacity="0.589" stroke-width="3.27"/>
    <path d="M84.0,256.0 L93.5,258.8 L103.7,261.3 L114.4,263.7 L125.6,265.8 L137.3,267.7 L149.4,269.5 L161.9,271.0 L174.8,272.3 L187.9,273.4 L201.2,274.4 L214.7,275.1 L228.4,275.6 L242.2,275.9 L256.0,276.0 L269.8,275.9 L283.6,275.6 L297.3,275.1 L310.8,274.4 L324.1,273.4 L337.2,272.3 L350.1,271.0 L362.6,269.5 L374.7,267.7 L386.4,265.8 L397.6,263.7 L408.3,261.3 L418.5,258.8 L428.0,256.0" stroke="url(#lineGrad)" stroke-opacity="0.647" stroke-width="3.40"/>
    <path d="M84.0,256.0 L93.5,257.8 L103.7,259.5 L114.4,261.1 L125.6,262.5 L137.3,263.8 L149.4,265.0 L161.9,266.0 L174.8,266.9 L187.9,267.6 L201.2,268.2 L214.7,268.7 L228.4,269.1 L242.2,269.3 L256.0,269.3 L269.8,269.3 L283.6,269.1 L297.3,268.7 L310.8,268.2 L324.1,267.6 L337.2,266.9 L350.1,266.0 L362.6,265.0 L374.7,263.8 L386.4,262.5 L397.6,261.1 L408.3,259.5 L418.5,257.8 L428.0,256.0" stroke="url(#lineGrad)" stroke-opacity="0.704" stroke-width="3.53"/>
    <path d="M84.0,256.0 L93.5,256.9 L103.7,257.8 L114.4,258.6 L125.6,259.3 L137.3,259.9 L149.4,260.5 L161.9,261.0 L174.8,261.4 L187.9,261.8 L201.2,262.1 L214.7,262.4 L228.4,262.5 L242.2,262.6 L256.0,262.7 L269.8,262.6 L283.6,262.5 L297.3,262.4 L310.8,262.1 L324.1,261.8 L337.2,261.4 L350.1,261.0 L362.6,260.5 L374.7,259.9 L386.4,259.3 L397.6,258.6 L408.3,257.8 L418.5,256.9 L428.0,256.0" stroke="url(#lineGrad)" stroke-opacity="0.762" stroke-width="3.67"/>
    <path d="M84.0,256.0 L93.5,256.0 L103.7,256.0 L114.4,256.0 L125.6,256.0 L137.3,256.0 L149.4,256.0 L161.9,256.0 L174.8,256.0 L187.9,256.0 L201.2,256.0 L214.7,256.0 L228.4,256.0 L242.2,256.0 L256.0,256.0 L269.8,256.0 L283.6,256.0 L297.3,256.0 L310.8,256.0 L324.1,256.0 L337.2,256.0 L350.1,256.0 L362.6,256.0 L374.7,256.0 L386.4,256.0 L397.6,256.0 L408.3,256.0 L418.5,256.0 L428.0,256.0" stroke="url(#lineGrad)" stroke-opacity="0.820" stroke-width="3.80"/>
    <path d="M84.0,256.0 L93.5,255.1 L103.7,254.2 L114.4,253.4 L125.6,252.7 L137.3,252.1 L149.4,251.5 L161.9,251.0 L174.8,250.6 L187.9,250.2 L201.2,249.9 L214.7,249.6 L228.4,249.5 L242.2,249.4 L256.0,249.3 L269.8,249.4 L283.6,249.5 L297.3,249.6 L310.8,249.9 L324.1,250.2 L337.2,250.6 L350.1,251.0 L362.6,251.5 L374.7,252.1 L386.4,252.7 L397.6,253.4 L408.3,254.2 L418.5,255.1 L428.0,256.0" stroke="url(#lineGrad)" stroke-opacity="0.762" stroke-width="3.67"/>
    <path d="M84.0,256.0 L93.5,254.2 L103.7,252.5 L114.4,250.9 L125.6,249.5 L137.3,248.2 L149.4,247.0 L161.9,246.0 L174.8,245.1 L187.9,244.4 L201.2,243.8 L214.7,243.3 L228.4,242.9 L242.2,242.7 L256.0,242.7 L269.8,242.7 L283.6,242.9 L297.3,243.3 L310.8,243.8 L324.1,244.4 L337.2,245.1 L350.1,246.0 L362.6,247.0 L374.7,248.2 L386.4,249.5 L397.6,250.9 L408.3,252.5 L418.5,254.2 L428.0,256.0" stroke="url(#lineGrad)" stroke-opacity="0.704" stroke-width="3.53"/>
    <path d="M84.0,256.0 L93.5,253.2 L103.7,250.7 L114.4,248.3 L125.6,246.2 L137.3,244.3 L149.4,242.5 L161.9,241.0 L174.8,239.7 L187.9,238.6 L201.2,237.6 L214.7,236.9 L228.4,236.4 L242.2,236.1 L256.0,236.0 L269.8,236.1 L283.6,236.4 L297.3,236.9 L310.8,237.6 L324.1,238.6 L337.2,239.7 L350.1,241.0 L362.6,242.5 L374.7,244.3 L386.4,246.2 L397.6,248.3 L408.3,250.7 L418.5,253.2 L428.0,256.0" stroke="url(#lineGrad)" stroke-opacity="0.647" stroke-width="3.40"/>
    <path d="M84.0,256.0 L93.5,252.3 L103.7,248.9 L114.4,245.8 L125.6,242.9 L137.3,240.4 L149.4,238.0 L161.9,236.0 L174.8,234.2 L187.9,232.7 L201.2,231.5 L214.7,230.6 L228.4,229.9 L242.2,229.5 L256.0,229.3 L269.8,229.5 L283.6,229.9 L297.3,230.6 L310.8,231.5 L324.1,232.7 L337.2,234.2 L350.1,236.0 L362.6,238.0 L374.7,240.4 L386.4,242.9 L397.6,245.8 L408.3,248.9 L418.5,252.3 L428.0,256.0" stroke="url(#lineGrad)" stroke-opacity="0.589" stroke-width="3.27"/>
    <path d="M84.0,256.0 L93.5,251.4 L103.7,247.2 L114.4,243.2 L125.6,239.7 L137.3,236.4 L149.4,233.6 L161.9,231.0 L174.8,228.8 L187.9,226.9 L201.2,225.4 L214.7,224.2 L228.4,223.3 L242.2,222.8 L256.0,222.7 L269.8,222.8 L283.6,223.3 L297.3,224.2 L310.8,225.4 L324.1,226.9 L337.2,228.8 L350.1,231.0 L362.6,233.6 L374.7,236.4 L386.4,239.7 L397.6,243.2 L408.3,247.2 L418.5,251.4 L428.0,256.0" stroke="url(#lineGrad)" stroke-opacity="0.531" stroke-width="3.13"/>
    <path d="M84.0,256.0 L93.5,250.5 L103.7,245.4 L114.4,240.7 L125.6,236.4 L137.3,232.5 L149.4,229.1 L161.9,226.0 L174.8,223.3 L187.9,221.1 L201.2,219.3 L214.7,217.8 L228.4,216.8 L242.2,216.2 L256.0,216.0 L269.8,216.2 L283.6,216.8 L297.3,217.8 L310.8,219.3 L324.1,221.1 L337.2,223.3 L350.1,226.0 L362.6,229.1 L374.7,232.5 L386.4,236.4 L397.6,240.7 L408.3,245.4 L418.5,250.5 L428.0,256.0" stroke="url(#lineGrad)" stroke-opacity="0.473" stroke-width="3.00"/>
    <path d="M84.0,256.0 L93.5,249.6 L103.7,243.6 L114.4,238.1 L125.6,233.1 L137.3,228.6 L149.4,224.6 L161.9,221.0 L174.8,217.9 L187.9,215.3 L201.2,213.1 L214.7,211.5 L228.4,210.3 L242.2,209.6 L256.0,209.3 L269.8,209.6 L283.6,210.3 L297.3,211.5 L310.8,213.1 L324.1,215.3 L337.2,217.9 L350.1,221.0 L362.6,224.6 L374.7,228.6 L386.4,233.1 L397.6,238.1 L408.3,243.6 L418.5,249.6 L428.0,256.0" stroke="url(#lineGrad)" stroke-opacity="0.416" stroke-width="2.87"/>
    <path d="M84.0,256.0 L93.5,248.7 L103.7,241.9 L114.4,235.6 L125.6,229.9 L137.3,224.7 L149.4,220.1 L161.9,216.0 L174.8,212.5 L187.9,209.5 L201.2,207.0 L214.7,205.1 L228.4,203.8 L242.2,202.9 L256.0,202.7 L269.8,202.9 L283.6,203.8 L297.3,205.1 L310.8,207.0 L324.1,209.5 L337.2,212.5 L350.1,216.0 L362.6,220.1 L374.7,224.7 L386.4,229.9 L397.6,235.6 L408.3,241.9 L418.5,248.7 L428.0,256.0" stroke="url(#lineGrad)" stroke-opacity="0.358" stroke-width="2.73"/>
    </g>
    <!-- dark frayed pupil painted on top so it reads clearly dark; tips fade into the bg -->
    <g filter="url(#softCore)">
      <path d="M256,148 C271,207.4 271,304.6 256,364 C241,304.6 241,207.4 256,148 Z" fill="url(#darkGrad)"/>
      <path d="M275,192 C278.2,227.2 278.2,284.8 275,320 C271.8,284.8 271.8,227.2 275,192 Z" fill="url(#darkGrad)"/>
      <path d="M237,192 C240.2,227.2 240.2,284.8 237,320 C233.8,284.8 233.8,227.2 237,192 Z" fill="url(#darkGrad)"/>
      <path d="M289,206 C291.6,233.5 291.6,278.5 289,306 C286.4,278.5 286.4,233.5 289,206 Z" fill="url(#darkGrad)"/>
      <path d="M223,206 C225.6,233.5 225.6,278.5 223,306 C220.4,278.5 220.4,233.5 223,206 Z" fill="url(#darkGrad)"/>
      <path d="M303,218 C305.1,238.9 305.1,273.1 303,294 C300.9,273.1 300.9,238.9 303,218 Z" fill="url(#darkGrad)"/>
      <path d="M209,218 C211.1,238.9 211.1,273.1 209,294 C206.9,273.1 206.9,238.9 209,218 Z" fill="url(#darkGrad)"/>
      <path d="M317,229 C318.7,243.8 318.7,268.1 317,283 C315.3,268.1 315.3,243.8 317,229 Z" fill="url(#darkGrad)"/>
      <path d="M195,229 C196.7,243.8 196.7,268.1 195,283 C193.3,268.1 193.3,243.8 195,229 Z" fill="url(#darkGrad)"/>
      <path d="M331,238 C332.4,247.9 332.4,264.1 331,274 C329.6,264.1 329.6,247.9 331,238 Z" fill="url(#darkGrad)"/>
      <path d="M181,238 C182.4,247.9 182.4,264.1 181,274 C179.6,264.1 179.6,247.9 181,238 Z" fill="url(#darkGrad)"/>
    </g>
    <!-- white catchlights -->
    <circle cx="300" cy="214" r="13" fill="url(#silver)"/>
    <circle cx="302" cy="212" r="5" fill="#FFFFFF"/>
    <circle cx="243" cy="298" r="6" fill="#F1F5F9" fill-opacity="0.5"/>
  </g>
  <text x="344" y="198" font-family="'Helvetica Neue',Helvetica,Arial,sans-serif"
        font-size="98" font-weight="800" letter-spacing="3" fill="url(#word)">LYNX</text>
  <text x="470" y="238" text-anchor="middle" font-family="'Helvetica Neue',Helvetica,Arial,sans-serif"
        font-size="15" font-weight="600" letter-spacing="4" fill="#878D98">TRADITIONAL&#160;PREDICTIONS</text>
</svg>
